{  "asset": {    "version": "2.0",    "generator": "THREE.GLTFExporter"  },  "scenes": [    {      "name": "AuxScene",      "nodes": [        1      ]    }  ],  "scene": 0,  "nodes": [    {      "mesh": 0    },    {      "children": [        0      ]    }  ],  "bufferViews": [    {      "buffer": 0,      "byteOffset": 0,      "byteLength": 8856,      "target": 34962,      "byteStride": 12    },    {      "buffer": 0,      "byteOffset": 8856,      "byteLength": 8856,      "target": 34962,      "byteStride": 12    },    {      "buffer": 0,      "byteOffset": 17712,      "byteLength": 5904,      "target": 34962,      "byteStride": 8    }  ],  "buffers": [    {      "byteLength": 23616,      "uri": "data:application/octet-stream;base64,"    }  ],  "accessors": [    {      "bufferView": 0,      "componentType": 5126,      "count": 738,      "max": [        12.31180191040039,        5.982251167297363,        30.015647888183594      ],      "min": [        -12.311802864074707,        -5.982251167297363,        -30.015647888183594      ],      "type": "VEC3"    },    {      "bufferView": 1,      "componentType": 5126,      "count": 738,      "max": [        0.9986571669578552,        1,        0.9900204539299011      ],      "min": [        -0.9986571669578552,        -0.99908447265625,        -1      ],      "type": "VEC3"    },    {      "bufferView": 2,      "componentType": 5126,      "count": 738,      "max": [        1,        1      ],      "min": [        0,        -0.9788506627082825      ],      "type": "VEC2"    }  ],  "materials": [    {      "pbrMetallicRoughness": {        "baseColorFactor": [          0.6038273388475408,          0.6038273388475408,          0.6038273388475408,          1        ],        "metallicFactor": 0.5,        "roughnessFactor": 0.5      },      "doubleSided": true,      "name": "mat0"    }  ],  "meshes": [    {      "primitives": [        {          "mode": 4,          "attributes": {            "POSITION": 0,            "NORMAL": 1,            "TEXCOORD_0": 2          },          "material": 0        }      ]    }  ]}